<svg width="254" height="82" viewBox="0 0 254 82" fill="none" xmlns="http://www.w3.org/2000/svg">
<rect width="254" height="82" fill="#DAFFD5"/>
<path d="M111.262 48.8858C110.305 48.8858 109.438 48.7338 108.661 48.4298C107.898 48.112 107.239 47.6423 106.684 47.0205C106.143 46.3988 105.726 45.6319 105.435 44.72C105.144 43.7943 104.998 42.7235 104.998 41.5077C104.998 40.2918 105.144 39.2141 105.435 38.2746C105.726 37.3213 106.143 36.5268 106.684 35.8912C107.239 35.2418 107.898 34.7514 108.661 34.4198C109.438 34.0882 110.305 33.9224 111.262 33.9224C112.566 33.9224 113.649 34.1987 114.509 34.7514C115.369 35.304 116.056 36.1399 116.569 37.2591L114.217 38.5026C114.009 37.8532 113.669 37.3351 113.198 36.9482C112.726 36.5475 112.081 36.3472 111.262 36.3472C110.236 36.3472 109.417 36.6926 108.806 37.3834C108.21 38.0743 107.912 39.0414 107.912 40.2849V42.5647C107.912 43.822 108.21 44.7891 108.806 45.4661C109.417 46.1293 110.236 46.4609 111.262 46.4609C112.081 46.4609 112.747 46.2399 113.26 45.7977C113.787 45.3556 114.169 44.8099 114.405 44.1605L116.632 45.4661C116.104 46.5438 115.404 47.3867 114.53 47.9946C113.656 48.5887 112.566 48.8858 111.262 48.8858Z" fill="black"/>
<path d="M122.708 48.8856C121.931 48.8856 121.231 48.7544 120.606 48.4919C119.996 48.2293 119.469 47.8494 119.025 47.352C118.595 46.8546 118.262 46.2605 118.026 45.5696C117.79 44.865 117.672 44.0775 117.672 43.207C117.672 42.3366 117.79 41.5559 118.026 40.8651C118.262 40.1743 118.595 39.5871 119.025 39.1035C119.469 38.6061 119.996 38.2261 120.606 37.9636C121.231 37.7011 121.931 37.5698 122.708 37.5698C123.485 37.5698 124.186 37.7011 124.81 37.9636C125.434 38.2261 125.962 38.6061 126.392 39.1035C126.836 39.5871 127.176 40.1743 127.412 40.8651C127.647 41.5559 127.765 42.3366 127.765 43.207C127.765 44.0775 127.647 44.865 127.412 45.5696C127.176 46.2605 126.836 46.8546 126.392 47.352C125.962 47.8494 125.434 48.2293 124.81 48.4919C124.186 48.7544 123.485 48.8856 122.708 48.8856ZM122.708 46.751C123.416 46.751 123.971 46.5368 124.373 46.1085C124.775 45.6802 124.977 45.0515 124.977 44.2225V42.2122C124.977 41.397 124.775 40.7753 124.373 40.347C123.971 39.9186 123.416 39.7045 122.708 39.7045C122.014 39.7045 121.466 39.9186 121.064 40.347C120.662 40.7753 120.461 41.397 120.461 42.2122V44.2225C120.461 45.0515 120.662 45.6802 121.064 46.1085C121.466 46.5368 122.014 46.751 122.708 46.751Z" fill="black"/>
<path d="M131.033 36.2436C130.478 36.2436 130.075 36.1192 129.825 35.8705C129.59 35.6218 129.472 35.304 129.472 34.9172V34.5027C129.472 34.1158 129.59 33.798 129.825 33.5493C130.075 33.3006 130.478 33.1763 131.033 33.1763C131.574 33.1763 131.969 33.3006 132.219 33.5493C132.468 33.798 132.593 34.1158 132.593 34.5027V34.9172C132.593 35.304 132.468 35.6218 132.219 35.8705C131.969 36.1192 131.574 36.2436 131.033 36.2436ZM129.701 37.8187H132.364V48.6371H129.701V37.8187Z" fill="black"/>
<path d="M135.028 48.6369V37.8185H137.692V39.6216H137.796C138.018 39.0413 138.365 38.5577 138.837 38.1708C139.322 37.7702 139.988 37.5698 140.835 37.5698C141.958 37.5698 142.819 37.936 143.415 38.6682C144.012 39.4005 144.31 40.4437 144.31 41.7977V48.6369H141.646V42.0671C141.646 41.2934 141.508 40.7131 141.23 40.3262C140.953 39.9394 140.495 39.7459 139.857 39.7459C139.579 39.7459 139.308 39.7874 139.045 39.8703C138.795 39.9394 138.566 40.0499 138.358 40.2019C138.164 40.3401 138.004 40.5197 137.879 40.7407C137.755 40.948 137.692 41.1967 137.692 41.4868V48.6369H135.028Z" fill="black"/>
<path d="M150.408 48.8856C149.368 48.8856 148.494 48.7129 147.786 48.3675C147.079 48.0083 146.454 47.5178 145.913 46.896L147.536 45.3209C147.939 45.7769 148.376 46.1361 148.847 46.3986C149.333 46.6612 149.888 46.7924 150.512 46.7924C151.151 46.7924 151.608 46.6819 151.886 46.4608C152.177 46.2397 152.323 45.9358 152.323 45.5489C152.323 45.2311 152.219 44.9824 152.011 44.8028C151.817 44.6094 151.477 44.4781 150.991 44.409L149.909 44.264C148.73 44.112 147.828 43.7804 147.203 43.2692C146.593 42.7441 146.288 41.9842 146.288 40.9894C146.288 40.4644 146.385 39.9946 146.579 39.5801C146.773 39.1518 147.051 38.7926 147.411 38.5024C147.772 38.1985 148.202 37.9705 148.702 37.8185C149.215 37.6527 149.784 37.5698 150.408 37.5698C150.936 37.5698 151.4 37.6113 151.803 37.6942C152.219 37.7633 152.593 37.8738 152.926 38.0258C153.259 38.1639 153.565 38.3436 153.842 38.5646C154.12 38.7719 154.39 39.0068 154.654 39.2693L153.093 40.8236C152.774 40.492 152.392 40.2157 151.948 39.9946C151.504 39.7736 151.019 39.663 150.492 39.663C149.909 39.663 149.486 39.7667 149.222 39.9739C148.972 40.1812 148.847 40.4506 148.847 40.7822C148.847 41.1414 148.952 41.4178 149.16 41.6112C149.382 41.7908 149.749 41.9221 150.263 42.005L151.366 42.15C153.71 42.4816 154.883 43.5455 154.883 45.3417C154.883 45.8667 154.772 46.3503 154.55 46.7924C154.342 47.2207 154.043 47.5938 153.655 47.9116C153.266 48.2155 152.795 48.4573 152.24 48.6369C151.699 48.8027 151.088 48.8856 150.408 48.8856Z" fill="black"/>
<path d="M163.311 46.8342H163.207C163.11 47.1105 162.978 47.373 162.812 47.6217C162.659 47.8566 162.458 48.0708 162.208 48.2642C161.972 48.4576 161.681 48.6096 161.334 48.7202C161.001 48.8307 160.613 48.886 160.169 48.886C159.045 48.886 158.185 48.5198 157.588 47.7875C156.992 47.0553 156.693 46.0121 156.693 44.6581V37.8188H159.357V44.3886C159.357 45.1347 159.503 45.7081 159.794 46.1088C160.086 46.4957 160.55 46.6891 161.189 46.6891C161.452 46.6891 161.709 46.6546 161.959 46.5855C162.222 46.5164 162.451 46.4128 162.645 46.2746C162.84 46.1226 162.999 45.943 163.124 45.7358C163.249 45.5147 163.311 45.2591 163.311 44.9689V37.8188H165.975V48.6373H163.311V46.8342Z" fill="black"/>
<path d="M171.303 48.6372C170.387 48.6372 169.714 48.4093 169.284 47.9533C168.854 47.4974 168.639 46.8549 168.639 46.0259V33.3008H171.303V46.5233H172.738V48.6372H171.303Z" fill="black"/>
<path d="M177.629 48.6371C176.713 48.6371 176.012 48.4022 175.527 47.9324C175.055 47.4488 174.819 46.7649 174.819 45.8806V39.9326H173.217V37.8186H174.049C174.452 37.8186 174.722 37.7288 174.861 37.5492C175.013 37.3558 175.09 37.0725 175.09 36.6995V34.855H177.483V37.8186H179.71V39.9326H177.483V46.5231H179.543V48.6371H177.629Z" fill="black"/>
<path d="M81.158 27H100.117V45.8799C100.117 48.2987 99.1517 50.6184 97.4342 52.3288C95.7168 54.0391 93.3874 55 90.9585 55H72V36.1201C72 33.7013 72.9649 31.3816 74.6823 29.6712C76.3998 27.9609 78.7292 27 81.158 27Z" fill="url(#paint0_linear_205_49)"/>
<path d="M94.2141 38.0184L92.3343 38.8762L91.0147 39.4785L90.9559 39.5049L89.1414 40.321C89.1414 40.314 89.1385 40.307 89.1362 40.2999C89.0291 39.8553 88.8225 39.4405 88.5319 39.0865L88.3643 38.7215L90.1746 37.8954L91.5136 37.2843L93.4098 36.4189C93.5149 36.5822 93.613 36.7492 93.704 36.9199L94.1994 37.9962L94.2141 38.0184Z" fill="white"/>
<path d="M94.5204 42.9639C94.381 43.5543 94.1789 44.1282 93.9173 44.6759L88.0381 43.6764L88.0934 43.3535C88.5223 43.0066 88.8478 42.5495 89.0347 42.0317L94.5204 42.9639Z" fill="white"/>
<path d="M83.9231 43.8951L81.548 45.5702L79.8501 46.7678C79.4447 46.3267 79.0868 45.8447 78.7822 45.3294L80.4713 44.1377L81.658 43.3004L82.8853 42.4351L83.9231 43.8951Z" fill="white"/>
<path d="M84.1497 36.5376L83.4154 38.1699L82.3399 37.69L80.9779 37.0825L79.0605 36.2265C79.41 35.7103 79.8153 35.2339 80.269 34.8057L82.3611 35.739L83.9608 36.4538L84.1497 36.5376Z" fill="white"/>
<path d="M92.4852 42.6177C92.198 43.7282 91.6205 44.7431 90.8115 45.5591C90.0025 46.3752 88.9909 46.9632 87.8796 47.2633C86.7682 47.5635 85.5968 47.5651 84.4847 47.268C83.3725 46.9708 82.3592 46.3856 81.548 45.5718C81.1247 45.146 80.7624 44.6642 80.4713 44.1398L78.7822 45.3315C79.6491 46.8028 80.9387 47.9816 82.4847 48.716C84.0307 49.4505 85.7622 49.7068 87.4558 49.452C89.1495 49.1972 90.7277 48.443 91.9869 47.2865C93.246 46.1301 94.1284 44.6245 94.5202 42.9639L92.4852 42.6177Z" fill="white"/>
<path d="M82.3615 35.7391C83.1856 35.1476 84.1372 34.756 85.1402 34.5956C86.1432 34.4352 87.17 34.5103 88.1387 34.8151C89.1074 35.1198 89.9912 35.6457 90.7196 36.3509C91.4481 37.0561 92.001 37.9209 92.3344 38.8766L94.2141 38.0188C94.2106 38.0101 94.2076 38.0013 94.2041 37.9931L93.7087 36.9168C93.6158 36.7465 93.5177 36.5795 93.4146 36.4158C92.6497 35.22 91.5981 34.2325 90.3545 33.5424C89.1109 32.8522 87.7144 32.4809 86.2908 32.4622C84.8673 32.4434 83.4614 32.7777 82.1999 33.4348C80.9383 34.092 79.8608 35.0514 79.0645 36.2266L80.9818 37.0826C81.3722 36.5691 81.8372 36.1163 82.3615 35.7391Z" fill="white"/>
<path d="M79.7778 39.7598C79.8497 39.3917 79.9532 39.0305 80.0873 38.68L78.2046 37.8398C77.4636 39.6989 77.3991 41.7575 78.0222 43.659L79.8084 42.3993C79.6163 41.5309 79.6059 40.6324 79.7778 39.7598Z" fill="white"/>
<path d="M92.2399 38.626L90.9438 39.2746L90.8873 39.3033L89.1094 40.1921" fill="white"/>
<path d="M82.7994 42.4807L81.6516 43.2904C81.361 42.7239 81.1813 42.1075 81.1221 41.4741L81.7622 41.0229L82.7994 42.4807Z" fill="white"/>
<path d="M83.6629 38.3147L82.9287 39.947L81.4072 39.2662C81.6141 38.6978 81.9227 38.1713 82.318 37.7124L83.6629 38.3147Z" fill="white"/>
<path d="M91.0564 42.375C90.7792 43.3519 90.213 44.2229 89.4315 44.8746C88.6499 45.5264 87.6894 45.9285 86.675 46.0287C85.6606 46.1288 84.6395 45.9224 83.7447 45.4362C82.8498 44.95 82.1228 44.2067 81.6584 43.3031C81.6556 43.2993 81.6535 43.2951 81.6519 43.2908C81.197 42.3999 81.0175 41.3948 81.1362 40.4024C81.2548 39.41 81.6663 38.4749 82.3185 37.7154L82.3402 37.6908C82.9316 37.0121 83.694 36.5026 84.5488 36.2149C85.4036 35.9272 86.32 35.8715 87.2035 36.0538C88.0871 36.236 88.906 36.6494 89.5757 37.2516C90.2455 37.8537 90.742 38.6227 91.0141 39.4795L90.9552 39.5053L89.1408 40.3208C89.1408 40.3138 89.1379 40.3068 89.1355 40.2998C88.9664 39.5911 88.5468 38.9667 87.9534 38.5408C87.3601 38.1148 86.6327 37.9157 85.9041 37.9798C85.1755 38.044 84.4944 38.3671 83.9853 38.8901C83.4762 39.4131 83.1731 40.1011 83.1314 40.8283C83.0897 41.5555 83.3122 42.2734 83.7582 42.8508C84.2042 43.4281 84.844 43.8263 85.5605 43.9726C86.277 44.1189 87.0225 44.0035 87.6607 43.6476C88.2988 43.2916 88.787 42.7189 89.0361 42.034L91.0564 42.375Z" fill="white"/>
<defs>
<linearGradient id="paint0_linear_205_49" x1="72.4495" y1="27.6984" x2="113.437" y2="68.0945" gradientUnits="userSpaceOnUse">
<stop stop-color="#3B916F"/>
<stop offset="1" stop-color="#096AA5"/>
</linearGradient>
</defs>
</svg>
